<svg width="128" height="128" viewBox="0 0 128 128" fill="none" xmlns="http://www.w3.org/2000/svg">
<rect width="128" height="128" fill="white"/>
<rect x="24" y="36" width="21" height="60" rx="6" fill="#FFCC33"/>
<rect x="55" y="11" width="21" height="85" rx="6" fill="#3399FF"/>
<path d="M86 56C86 52.6863 88.6863 50 92 50H101C104.314 50 107 52.6863 107 56V90C107 93.3137 104.314 96 101 96C96.2755 96 97.9943 96 92.0055 96C88.6918 96 86 93.3137 86 90V56Z" fill="#FF5555"/>
<path d="M86 83.5C86 82.6716 86.6716 82 87.5 82C88.3284 82 89 82.6716 89 83.5V110.5C89 111.328 88.3284 112 87.5 112C86.6716 112 86 111.328 86 110.5V83.5Z" fill="#FF5555"/>
<path d="M89 93.5C89 92.6716 89.6716 92 90.5 92C91.3284 92 92 92.6716 92 93.5V120.5C92 121.328 91.3284 122 90.5 122C89.6716 122 89 121.328 89 120.5V93.5Z" fill="white"/>
<path d="M55 83.5C55 82.6716 55.6716 82 56.5 82C57.3284 82 58 82.6716 58 83.5V110.5C58 111.328 57.3284 112 56.5 112C55.6716 112 55 111.328 55 110.5V83.5Z" fill="#3399FF"/>
<path d="M24 86.5C24 85.6716 24.6716 85 25.5 85C26.3284 85 27 85.6716 27 86.5V113.5C27 114.328 26.3284 115 25.5 115C24.6716 115 24 114.328 24 113.5V86.5Z" fill="#FFCC33"/>
<path d="M27 91.5C27 90.6716 27.6716 90 28.5 90C29.3284 90 30 90.6716 30 91.5V118.5C30 119.328 29.3284 120 28.5 120C27.6716 120 27 119.328 27 118.5V91.5Z" fill="white"/>
<path d="M33 93.5C33 92.6716 33.6716 92 34.5 92C35.3284 92 36 92.6716 36 93.5V120.5C36 121.328 35.3284 122 34.5 122C33.6716 122 33 121.328 33 120.5V93.5Z" fill="white"/>
<path d="M39 93.5C39 92.6716 39.6716 92 40.5 92C41.3284 92 42 92.6716 42 93.5V120.5C42 121.328 41.3284 122 40.5 122C39.6716 122 39 121.328 39 120.5V93.5Z" fill="white"/>
<path d="M30 83.5C30 82.6716 30.6716 82 31.5 82C32.3284 82 33 82.6716 33 83.5V110.5C33 111.328 32.3284 112 31.5 112C30.6716 112 30 111.328 30 110.5V83.5Z" fill="#FFCC33"/>
<path d="M36 86.5C36 85.6716 36.6716 85 37.5 85C38.3284 85 39 85.6716 39 86.5V123.5C39 124.328 38.3284 125 37.5 125C36.6716 125 36 124.328 36 123.5V86.5Z" fill="#FFCC33"/>
<path d="M42 80.5C42 79.6716 42.6716 79 43.5 79C44.3284 79 45 79.6716 45 80.5V117.5C45 118.328 44.3284 119 43.5 119C42.6716 119 42 118.328 42 117.5V80.5Z" fill="#FFCC33"/>
<path d="M58 91.5C58 90.6716 58.6716 90 59.5 90C60.3284 90 61 90.6716 61 91.5V118.5C61 119.328 60.3284 120 59.5 120C58.6716 120 58 119.328 58 118.5V91.5Z" fill="white"/>
<path d="M64 89.5C64 88.6716 64.6716 88 65.5 88C66.3284 88 67 88.6716 67 89.5V116.5C67 117.328 66.3284 118 65.5 118C64.6716 118 64 117.328 64 116.5V89.5Z" fill="white"/>
<path d="M70 95.5C70 94.6716 70.6716 94 71.5 94C72.3284 94 73 94.6716 73 95.5V122.5C73 123.328 72.3284 124 71.5 124C70.6716 124 70 123.328 70 122.5V95.5Z" fill="white"/>
<path d="M67 89.5C67 88.6716 67.6716 88 68.5 88C69.3284 88 70 88.6716 70 89.5V116.5C70 117.328 69.3284 118 68.5 118C67.6716 118 67 117.328 67 116.5V89.5Z" fill="#3399FF"/>
<path d="M73 80.5C73 79.6716 73.6716 79 74.5 79C75.3284 79 76 79.6716 76 80.5V107.5C76 108.328 75.3284 109 74.5 109C73.6716 109 73 108.328 73 107.5V80.5Z" fill="#3399FF"/>
<path d="M95 95.5C95 94.6716 95.6716 94 96.5 94C97.3284 94 98 94.6716 98 95.5V122.5C98 123.328 97.3284 124 96.5 124C95.6716 124 95 123.328 95 122.5V95.5Z" fill="white"/>
<path d="M101 95.5C101 94.6716 101.672 94 102.5 94C103.328 94 104 94.6716 104 95.5V122.5C104 123.328 103.328 124 102.5 124C101.672 124 101 123.328 101 122.5V95.5Z" fill="white"/>
<path d="M98 91.5C98 90.6716 98.6716 90 99.5 90C100.328 90 101 90.6716 101 91.5V105V118.5C101 119.328 100.328 120 99.5 120C98.6716 120 98 119.328 98 118.5V91.5Z" fill="#FF5555"/>
<path d="M61 86.5C61 85.6716 61.6716 85 62.5 85C63.3284 85 64 85.6716 64 86.5V123.5C64 124.328 63.3284 125 62.5 125C61.6716 125 61 124.328 61 123.5V86.5Z" fill="#3399FF"/>
<path d="M92 93.5C92 92.6716 92.6716 92 93.5 92C94.3284 92 95 92.6716 95 93.5V120.5C95 121.328 94.3284 122 93.5 122C92.6716 122 92 121.328 92 120.5V93.5Z" fill="#FF5555"/>
<path d="M104 83.5C104 82.6716 104.672 82 105.5 82C106.328 82 107 82.6716 107 83.5V110.5C107 111.328 106.328 112 105.5 112C104.672 112 104 111.328 104 110.5V83.5Z" fill="#FF5555"/>
</svg>
